# xmcd
#
# Track frame offsets:
#	150
#	18650
#	38840
#	52207
#	67075
#	85212
#	98743
#	116269
#	132806
#	148866
#	165546
#	187290
#	202966
#	216931
#	239510
#	257599
#	275633
#	295676
#	308242
#	327501
#	341866
#
# Disc length: 4771 seconds
#
# Revision: 0
# Processed by: cddbd v1.5.2PL0 Copyright (c) Steve Scherf et al.
# Submitted via: EZCDAudioConverter 7.0.0.1
#
DISCID=4f12a115
DTITLE=MAZĀ ĢILDE UN ŠLĀGERKORIS - Tas Bij Tik Sen
DYEAR=1900
DGENRE=
TTITLE0=Vecās Dzirnas
TTITLE1=Jūras Brauciens
TTITLE2=Zvejnieka Meitene
TTITLE3=Marina
TTITLE4=Brūklenājs
TTITLE5=Gaujas Laivinieks
TTITLE6=Četri Veči
TTITLE7=Mazā Emī
TTITLE8=Mīlas Ziedonis
TTITLE9=Tas Bij Tik Sen
TTITLE10=Pie Jūras Dzīve Mana
TTITLE11=O Marianna
TTITLE12=Neskumsti Meitene
TTITLE13=Kumeliņš
TTITLE14=Tur Es Dzēru
TTITLE15=Ceļinieks
TTITLE16=Man Garšo Alus
TTITLE17=Atmiņu Ceļi
TTITLE18=Santa Lučia
TTITLE19=Rudzupuķu Vasara
TTITLE20=Atmiņu Putenī
EXTD=
EXTT0=
EXTT1=
EXTT2=
EXTT3=
EXTT4=
EXTT5=
EXTT6=
EXTT7=
EXTT8=
EXTT9=
EXTT10=
EXTT11=
EXTT12=
EXTT13=
EXTT14=
EXTT15=
EXTT16=
EXTT17=
EXTT18=
EXTT19=
EXTT20=
PLAYORDER=
